# xmcd
#
# Track frame offsets: 
#        150
#        8684
#        29911
#        52186
#        88415
#        106655
#        148169
#        160511
#
# Disc length: 2306 seconds
#
# Revision: 32
# Processed by: cddbd v1.5.2PL0 Copyright (c) Steve Scherf et al.
# Submitted via: ExactAudioCopy v0.99pb3
#
DISCID=68090008
DTITLE=Stevie Ray Vaughan And Double Trouble - Couldn't Stand The Weat
DTITLE=her
DYEAR=1984
DGENRE=Blues
TTITLE0=Scuttle Buttin'
TTITLE1=Couldn't Stand The Weather
TTITLE2=The Things (That) I Used To Do
TTITLE3=Voodoo Chile (Slight Return)
TTITLE4=Cold Shot
TTITLE5=Tin Pan Alley
TTITLE6=Honey Bee
TTITLE7=Stang's Swang
EXTD=YEAR: 1984\n
EXTT0=
EXTT1=
EXTT2=
EXTT3=
EXTT4=
EXTT5=
EXTT6=
EXTT7=
PLAYORDER=
